<svg width="31" height="31" viewBox="0 0 31 31" fill="none" xmlns="http://www.w3.org/2000/svg">
<path d="M29.4264 1.14214C30.2943 2.00997 30.2943 3.41701 29.4264 4.28484L18.4286 15.2827L29.4264 26.2837C30.2943 27.1515 30.2943 28.5586 29.4264 29.4264C28.5586 30.2942 27.1516 30.2942 26.2838 29.4264L15.2859 18.4254L4.28487 29.4264C3.41704 30.2942 2.01 30.2942 1.14217 29.4264C0.274339 28.5586 0.274339 27.1515 1.14217 26.2837L12.1432 15.2827L1.14218 4.28482C0.274346 3.41699 0.274346 2.00996 1.14218 1.14212C2.01001 0.274292 3.41704 0.274292 4.28487 1.14212L15.2859 12.14L26.2837 1.14214C27.1516 0.274308 28.5586 0.274308 29.4264 1.14214Z" fill="white"/>
</svg>
