<svg width="48" height="48" viewBox="0 0 48 48" fill="none" xmlns="http://www.w3.org/2000/svg">
<g clip-path="url(#clip0_94_836)">
<path d="M41.9265 24.45L40.869 16.95C40.6091 15.1649 39.7174 13.5323 38.356 12.3487C36.9947 11.1651 35.2539 10.5092 33.45 10.5H13.5C11.5116 10.5024 9.60534 11.2933 8.19933 12.6993C6.79332 14.1053 6.00238 16.0116 6 18L6 25.5C6.00238 27.4884 6.79332 29.3947 8.19933 30.8007C9.60534 32.2067 11.5116 32.9976 13.5 33H17.568L20.439 38.817C20.9216 39.7974 21.7406 40.5716 22.7466 40.9985C23.7525 41.4254 24.8784 41.4764 25.9188 41.1423C26.9592 40.8082 27.8449 40.1113 28.4143 39.1786C28.9837 38.2459 29.1988 37.1396 29.0205 36.0615L28.5165 33H34.5C35.5737 33.0001 36.6348 32.7696 37.6117 32.3242C38.5887 31.8788 39.4586 31.2288 40.1626 30.4182C40.8667 29.6076 41.3885 28.6553 41.6928 27.6257C41.9971 26.5961 42.0768 25.5131 41.9265 24.45ZM13.5 13.5H16.5V30H13.5C12.3065 30 11.1619 29.5259 10.318 28.682C9.47411 27.8381 9 26.6935 9 25.5V18C9 16.8065 9.47411 15.6619 10.318 14.818C11.1619 13.9741 12.3065 13.5 13.5 13.5ZM37.896 28.452C37.4736 28.938 36.9519 29.3276 36.3661 29.5947C35.7802 29.8617 35.1439 29.9999 34.5 30H26.7495C26.5319 30 26.317 30.0472 26.1195 30.1386C25.922 30.2299 25.7468 30.3631 25.6059 30.5289C25.4651 30.6947 25.362 30.8892 25.3038 31.0989C25.2456 31.3085 25.2338 31.5283 25.269 31.743L26.061 36.543C26.099 36.7658 26.0874 36.9942 26.027 37.212C25.9666 37.4298 25.8589 37.6316 25.7115 37.803C25.5387 37.9893 25.3242 38.1319 25.0855 38.2191C24.8468 38.3062 24.5909 38.3355 24.3387 38.3045C24.0865 38.2734 23.8453 38.1829 23.6349 38.0405C23.4245 37.898 23.251 37.7076 23.1285 37.485L19.845 30.837C19.7584 30.6707 19.6414 30.5222 19.5 30.399V13.5H33.45C34.5334 13.504 35.5793 13.8971 36.3971 14.6077C37.2148 15.3184 37.75 16.2992 37.905 17.3715L38.964 24.8715C39.0528 25.51 39.0034 26.1601 38.8192 26.7778C38.6349 27.3956 38.3201 27.9665 37.896 28.452Z" fill="white"/>
</g>
<defs>
<clipPath id="clip0_94_836">
<rect width="36" height="36" fill="white" transform="translate(6 6)"/>
</clipPath>
</defs>
</svg>
