<svg width="48" height="49" viewBox="0 0 48 49" fill="none" xmlns="http://www.w3.org/2000/svg">
<g clip-path="url(#clip0_231_630)">
<circle cx="24" cy="24.5" r="24" fill="white"/>
<path d="M40 15.7764V34.3218C40 35.5271 39.024 36.5031 37.8187 36.5031H32.7267V24.1404L24 30.6871L15.2733 24.1404V36.5044H10.1813C9.89476 36.5044 9.611 36.448 9.34627 36.3383C9.08153 36.2286 8.841 36.0678 8.63843 35.8651C8.43585 35.6624 8.27521 35.4218 8.16566 35.1569C8.05612 34.8921 7.99983 34.6083 8 34.3218V15.7764C8 13.0791 11.0787 11.5391 13.236 13.1578L15.2733 14.6871L24 21.2311L32.7267 14.6844L34.764 13.1578C36.92 11.5404 40 13.0791 40 15.7764Z" fill="black" fill-opacity="0.8"/>
</g>
<defs>
<clipPath id="clip0_231_630">
<rect width="48" height="48" fill="white" transform="translate(0 0.5)"/>
</clipPath>
</defs>
</svg>
