<svg width="48" height="48" viewBox="0 0 48 48" fill="none" xmlns="http://www.w3.org/2000/svg">
<g clip-path="url(#clip0_94_835)">
<path d="M40.1595 17.5821C39.4561 16.7715 38.5868 16.1215 37.6104 15.6761C36.6339 15.2307 35.5732 15.0003 34.5 15.0006H28.5165L29.0205 11.9391C29.1988 10.861 28.9837 9.75467 28.4143 8.82198C27.8449 7.88928 26.9592 7.19234 25.9188 6.85825C24.8784 6.52417 23.7525 6.57522 22.7466 7.00208C21.7406 7.42894 20.9216 8.20317 20.439 9.18357L17.568 15.0006H13.5C11.5116 15.0029 9.60534 15.7939 8.19933 17.1999C6.79332 18.6059 6.00238 20.5122 6 22.5006L6 30.0006C6.00238 31.989 6.79332 33.8952 8.19933 35.3012C9.60534 36.7072 11.5116 37.4982 13.5 37.5006H33.45C35.2552 37.4932 36.9978 36.838 38.3607 35.6543C39.7236 34.4706 40.6164 32.8369 40.8765 31.0506L41.934 23.5506C42.0829 22.4867 42.0016 21.4032 41.6954 20.3735C41.3893 19.3437 40.8655 18.3918 40.1595 17.5821ZM9 30.0006V22.5006C9 21.3071 9.47411 20.1625 10.318 19.3186C11.1619 18.4747 12.3065 18.0006 13.5 18.0006H16.5V34.5006H13.5C12.3065 34.5006 11.1619 34.0265 10.318 33.1825C9.47411 32.3386 9 31.194 9 30.0006ZM38.9565 23.1291L37.8975 30.6291C37.7427 31.7 37.2086 32.6799 36.3924 33.3904C35.5762 34.1009 34.5321 34.4948 33.45 34.5006H19.5V17.6016C19.6414 17.4784 19.7584 17.3298 19.845 17.1636L23.1285 10.5111C23.2516 10.289 23.4257 10.0992 23.6364 9.95751C23.8472 9.81577 24.0885 9.72606 24.3407 9.69575C24.5928 9.66544 24.8485 9.6954 25.0868 9.78316C25.3252 9.87091 25.5392 10.014 25.7115 10.2006C25.8589 10.3719 25.9666 10.5737 26.027 10.7915C26.0874 11.0093 26.099 11.2378 26.061 11.4606L25.269 16.2606C25.2342 16.475 25.2465 16.6945 25.3049 16.9038C25.3633 17.113 25.4665 17.3071 25.6073 17.4726C25.748 17.6381 25.9231 17.771 26.1203 17.8622C26.3176 17.9533 26.5322 18.0005 26.7495 18.0006H34.5C35.1441 18.0005 35.7807 18.1387 36.3668 18.4058C36.9529 18.6729 37.4749 19.0627 37.8973 19.5489C38.3198 20.0351 38.633 20.6063 38.8157 21.224C38.9985 21.8416 39.0465 22.4913 38.9565 23.1291Z" fill="white"/>
</g>
<defs>
<clipPath id="clip0_94_835">
<rect width="36" height="36" fill="white" transform="translate(6 6)"/>
</clipPath>
</defs>
</svg>
