<svg width="36" height="36" viewBox="0 0 36 36" fill="none" xmlns="http://www.w3.org/2000/svg">
<g clip-path="url(#clip0_178_448)">
<path d="M34.1448 15.3466L26.7198 7.92163L24.6003 10.0486L31.0503 16.4986H9.92578V19.4986H31.0503L24.6003 25.9486L26.7213 28.0696L34.1463 20.6446C34.4946 20.2964 34.7709 19.883 34.9594 19.4279C35.148 18.9729 35.245 18.4852 35.245 17.9926C35.245 17.5001 35.148 17.0124 34.9594 16.5573C34.7709 16.1023 34.4946 15.6889 34.1463 15.3406L34.1448 15.3466Z" fill="white"/>
<path d="M15.714 31.5C15.714 31.8978 15.556 32.2794 15.2747 32.5607C14.9934 32.842 14.6118 33 14.214 33H4.5C4.10218 33 3.72064 32.842 3.43934 32.5607C3.15804 32.2794 3 31.8978 3 31.5V4.5C3 4.10218 3.15804 3.72064 3.43934 3.43934C3.72064 3.15804 4.10218 3 4.5 3H14.214C14.6118 3 14.9934 3.15804 15.2747 3.43934C15.556 3.72064 15.714 4.10218 15.714 4.5V12.4995H18.714V4.5C18.714 3.30653 18.2399 2.16193 17.396 1.31802C16.5521 0.474106 15.4075 0 14.214 0L4.5 0C3.30653 0 2.16193 0.474106 1.31802 1.31802C0.474106 2.16193 0 3.30653 0 4.5L0 31.5C0 32.6935 0.474106 33.8381 1.31802 34.682C2.16193 35.5259 3.30653 36 4.5 36H14.214C15.4075 36 16.5521 35.5259 17.396 34.682C18.2399 33.8381 18.714 32.6935 18.714 31.5V23.5005H15.714V31.5Z" fill="white"/>
</g>
<defs>
<clipPath id="clip0_178_448">
<rect width="36" height="36" fill="white"/>
</clipPath>
</defs>
</svg>
