<svg width="210" height="48" viewBox="0 0 210 48" fill="none" xmlns="http://www.w3.org/2000/svg">
<rect width="210" height="48" rx="24" fill="#1810AC"/>
<g clip-path="url(#clip0_8_351)">
<path d="M15.4 15.3999C18.9346 11.8653 24.6654 11.8653 28.2 15.3999C31.4252 18.6251 31.7075 23.6786 29.0471 27.224C29.0699 27.2428 29.0924 27.2638 29.1143 27.2856L34.6 32.7714C35.1049 33.2763 35.1049 34.095 34.6 34.5999C34.0951 35.1049 33.2764 35.1049 32.7714 34.5999L27.2857 29.1142L27.2251 29.0463C23.6797 31.7075 18.6255 31.4254 15.4 28.1999C11.8654 24.6653 11.8654 18.9345 15.4 15.3999ZM17.2286 17.2285C14.7038 19.7532 14.7038 23.8466 17.2286 26.3714C19.7533 28.8961 23.8467 28.8961 26.3714 26.3714C28.8962 23.8466 28.8962 19.7532 26.3714 17.2285C23.8467 14.7038 19.7533 14.7038 17.2286 17.2285Z" fill="white"/>
</g>
<path d="M62.1 23.56L60.58 30.48H58.66L56.62 16.5H57.92L59.64 28.94L61.24 21.86H62.96L64.46 28.94L66.26 16.5H67.54L65.52 30.48H63.58L62.1 23.56ZM73.9894 22.24C73.7494 22.0933 73.5494 21.98 73.3894 21.9C73.2427 21.8067 73.1094 21.74 72.9894 21.7C72.8694 21.66 72.756 21.64 72.6494 21.64C72.5427 21.6267 72.4294 21.62 72.3094 21.62C72.1227 21.62 71.876 21.6733 71.5694 21.78C71.2627 21.8733 70.9494 22.06 70.6294 22.34V30.48H69.3894V21.8C69.3094 21.72 69.2094 21.6267 69.0894 21.52C68.9694 21.4133 68.876 21.32 68.8094 21.24L69.6894 20.34L70.3694 21C70.756 20.6933 71.116 20.5 71.4494 20.42C71.796 20.34 72.096 20.3 72.3494 20.3C72.616 20.3 72.916 20.36 73.2494 20.48C73.5827 20.6 74.0627 20.8333 74.6894 21.18L73.9894 22.24ZM75.97 16.6H77.29V18.4H75.97V16.6ZM75.97 20.5H77.29V30.5H75.97V20.5ZM80.5395 21.72H78.8795V20.48H80.5395V16.6H81.8395V20.48H83.6195V21.72H81.8395V27.94C81.8395 28.42 81.9595 28.7533 82.1995 28.94C82.4395 29.1133 82.7262 29.2 83.0595 29.2H83.6195V30.52H82.9595C82.2795 30.52 81.7062 30.3133 81.2395 29.9C80.7729 29.4733 80.5395 28.7867 80.5395 27.84V21.72ZM88.5869 25.54C89.0002 25.54 89.3469 25.38 89.6269 25.06C89.9202 24.7267 90.0669 24.3467 90.0669 23.92V23.1C90.0669 22.82 90.0135 22.5867 89.9069 22.4C89.8002 22.2 89.6535 22.04 89.4669 21.92C89.2935 21.8 89.0869 21.7133 88.8469 21.66C88.6069 21.6067 88.3602 21.58 88.1069 21.58C87.6535 21.58 87.2535 21.72 86.9069 22C86.5602 22.2667 86.3869 22.6333 86.3869 23.1V25.52L88.5869 25.54ZM85.0869 23.2C85.0869 22.8 85.1602 22.4267 85.3069 22.08C85.4535 21.72 85.6535 21.4133 85.9069 21.16C86.1602 20.8933 86.4535 20.6867 86.7869 20.54C87.1335 20.38 87.5002 20.3 87.8869 20.3H88.5469C88.9335 20.3 89.2935 20.3733 89.6269 20.52C89.9735 20.6667 90.2735 20.8733 90.5269 21.14C90.7802 21.3933 90.9802 21.7 91.1269 22.06C91.2735 22.4067 91.3469 22.7867 91.3469 23.2V23.84C91.3469 24.4133 91.2469 24.8933 91.0469 25.28C90.8469 25.6667 90.5669 25.98 90.2069 26.22C89.8602 26.46 89.4535 26.6333 88.9869 26.74C88.5202 26.8467 88.0269 26.9 87.5069 26.9C87.1335 26.9 86.7602 26.88 86.3869 26.84V27.84C86.4802 28.3067 86.7069 28.6867 87.0669 28.98C87.4402 29.2733 87.8602 29.42 88.3269 29.42C88.3535 29.42 88.5069 29.3933 88.7869 29.34C89.0802 29.2733 89.3935 29.2 89.7269 29.12C90.1135 29.04 90.5402 28.94 91.0069 28.82L91.3269 30.14C90.8202 30.2467 90.3535 30.34 89.9269 30.42C89.5669 30.4867 89.2269 30.5467 88.9069 30.6C88.5869 30.6533 88.3935 30.68 88.3269 30.68C87.8869 30.68 87.4669 30.6 87.0669 30.44C86.6802 30.28 86.3402 30.06 86.0469 29.78C85.7535 29.5 85.5202 29.1667 85.3469 28.78C85.1735 28.3933 85.0869 27.9667 85.0869 27.5V23.2ZM103.053 27.68C103.053 28.68 102.8 29.4333 102.293 29.94C101.8 30.4467 101.153 30.7 100.353 30.7C100.113 30.7 99.8663 30.6733 99.613 30.62C99.3596 30.58 99.0996 30.5067 98.833 30.4L97.113 29.72L97.593 28.62L99.333 29.32C99.5063 29.3867 99.6796 29.4333 99.853 29.46C100.04 29.4867 100.213 29.5 100.373 29.5C100.786 29.5 101.133 29.34 101.413 29.02C101.706 28.6867 101.853 28.2133 101.853 27.6C101.853 27.3467 101.8 27.1333 101.693 26.96C101.6 26.7733 101.473 26.6267 101.313 26.52C101.166 26.4133 101 26.3333 100.813 26.28C100.64 26.2267 100.473 26.2 100.313 26.2C99.833 26.2 99.393 26.1533 98.993 26.06C98.6063 25.9667 98.273 25.8133 97.993 25.6C97.713 25.3733 97.4996 25.08 97.353 24.72C97.2063 24.3467 97.133 23.88 97.133 23.32C97.133 22.8267 97.2063 22.3933 97.353 22.02C97.4996 21.6333 97.693 21.3133 97.933 21.06C98.1863 20.8067 98.4796 20.62 98.813 20.5C99.1596 20.3667 99.533 20.3 99.933 20.3C100.173 20.3 100.413 20.3333 100.653 20.4C100.893 20.4533 101.146 20.5267 101.413 20.62L102.193 20.9L101.693 22C101.346 21.88 101.073 21.7867 100.873 21.72C100.686 21.6533 100.533 21.6067 100.413 21.58C100.306 21.5533 100.226 21.54 100.173 21.54C100.12 21.5267 100.066 21.52 100.013 21.52H99.913C99.4996 21.52 99.133 21.6867 98.813 22.02C98.493 22.3533 98.333 22.82 98.333 23.42C98.333 23.6733 98.3863 23.9 98.493 24.1C98.613 24.2867 98.753 24.4467 98.913 24.58C99.073 24.7133 99.2463 24.8133 99.433 24.88C99.633 24.9467 99.813 24.98 99.973 24.98C100.4 24.98 100.8 25.02 101.173 25.1C101.546 25.1667 101.873 25.3 102.153 25.5C102.433 25.7 102.653 25.9733 102.813 26.32C102.973 26.6667 103.053 27.12 103.053 27.68ZM109.64 23.34C109.64 22.94 109.566 22.6267 109.42 22.4C109.286 22.16 109.113 21.98 108.9 21.86C108.7 21.7267 108.486 21.64 108.26 21.6C108.046 21.56 107.86 21.54 107.7 21.54C107.54 21.54 107.346 21.56 107.12 21.6C106.893 21.64 106.673 21.7267 106.46 21.86C106.26 21.98 106.086 22.16 105.94 22.4C105.793 22.6267 105.72 22.94 105.72 23.34V27.56C105.72 27.96 105.793 28.28 105.94 28.52C106.086 28.76 106.26 28.9467 106.46 29.08C106.673 29.2 106.893 29.2867 107.12 29.34C107.346 29.38 107.54 29.4 107.7 29.4C107.86 29.4 108.046 29.38 108.26 29.34C108.486 29.2867 108.7 29.2 108.9 29.08C109.113 28.9467 109.286 28.76 109.42 28.52C109.566 28.28 109.64 27.96 109.64 27.56V23.34ZM110.8 27.7C110.8 28.3267 110.686 28.8333 110.46 29.22C110.233 29.5933 109.953 29.8867 109.62 30.1C109.3 30.3133 108.96 30.4533 108.6 30.52C108.253 30.5867 107.953 30.62 107.7 30.62C107.446 30.62 107.14 30.5867 106.78 30.52C106.42 30.4533 106.073 30.3133 105.74 30.1C105.42 29.8867 105.146 29.5933 104.92 29.22C104.693 28.8333 104.58 28.3267 104.58 27.7V23.2C104.58 22.5733 104.693 22.0733 104.92 21.7C105.146 21.3133 105.42 21.02 105.74 20.82C106.073 20.6067 106.42 20.4667 106.78 20.4C107.14 20.3333 107.446 20.3 107.7 20.3C107.953 20.3 108.253 20.3333 108.6 20.4C108.96 20.4667 109.3 20.6067 109.62 20.82C109.953 21.02 110.233 21.3133 110.46 21.7C110.686 22.0733 110.8 22.5733 110.8 23.2V27.7ZM118.059 23.04C118.059 22.84 118.006 22.6533 117.899 22.48C117.793 22.2933 117.653 22.1333 117.479 22C117.319 21.8667 117.126 21.7667 116.899 21.7C116.686 21.62 116.466 21.58 116.239 21.58C116.133 21.58 115.993 21.6 115.819 21.64C115.659 21.6667 115.486 21.7133 115.299 21.78C115.126 21.8333 114.953 21.9 114.779 21.98C114.619 22.0467 114.479 22.12 114.359 22.2V30.5H113.099V21.62L112.599 21.14L113.499 20.26L114.099 20.88C114.446 20.6933 114.786 20.5533 115.119 20.46C115.453 20.3533 115.786 20.3 116.119 20.3C116.679 20.3 117.199 20.4133 117.679 20.64C118.173 20.8667 118.539 21.2067 118.779 21.66C119.166 21.1267 119.613 20.7667 120.119 20.58C120.639 20.3933 121.133 20.3 121.599 20.3C122.093 20.3 122.513 20.4067 122.859 20.62C123.206 20.82 123.486 21.08 123.699 21.4C123.913 21.72 124.066 22.0667 124.159 22.44C124.266 22.8 124.319 23.14 124.319 23.46V30.5H123.039V23.46C123.039 23.2333 123.013 23.0133 122.959 22.8C122.919 22.5733 122.839 22.3733 122.719 22.2C122.599 22.0133 122.439 21.8667 122.239 21.76C122.053 21.64 121.819 21.58 121.539 21.58C120.779 21.58 120.219 21.8 119.859 22.24C119.513 22.6667 119.339 23.28 119.339 24.08V30.5H118.059V23.04ZM129.993 25.54C130.406 25.54 130.753 25.38 131.033 25.06C131.326 24.7267 131.473 24.3467 131.473 23.92V23.1C131.473 22.82 131.42 22.5867 131.313 22.4C131.206 22.2 131.06 22.04 130.873 21.92C130.7 21.8 130.493 21.7133 130.253 21.66C130.013 21.6067 129.766 21.58 129.513 21.58C129.06 21.58 128.66 21.72 128.313 22C127.966 22.2667 127.793 22.6333 127.793 23.1V25.52L129.993 25.54ZM126.493 23.2C126.493 22.8 126.566 22.4267 126.713 22.08C126.86 21.72 127.06 21.4133 127.313 21.16C127.566 20.8933 127.86 20.6867 128.193 20.54C128.54 20.38 128.906 20.3 129.293 20.3H129.953C130.34 20.3 130.7 20.3733 131.033 20.52C131.38 20.6667 131.68 20.8733 131.933 21.14C132.186 21.3933 132.386 21.7 132.533 22.06C132.68 22.4067 132.753 22.7867 132.753 23.2V23.84C132.753 24.4133 132.653 24.8933 132.453 25.28C132.253 25.6667 131.973 25.98 131.613 26.22C131.266 26.46 130.86 26.6333 130.393 26.74C129.926 26.8467 129.433 26.9 128.913 26.9C128.54 26.9 128.166 26.88 127.793 26.84V27.84C127.886 28.3067 128.113 28.6867 128.473 28.98C128.846 29.2733 129.266 29.42 129.733 29.42C129.76 29.42 129.913 29.3933 130.193 29.34C130.486 29.2733 130.8 29.2 131.133 29.12C131.52 29.04 131.946 28.94 132.413 28.82L132.733 30.14C132.226 30.2467 131.76 30.34 131.333 30.42C130.973 30.4867 130.633 30.5467 130.313 30.6C129.993 30.6533 129.8 30.68 129.733 30.68C129.293 30.68 128.873 30.6 128.473 30.44C128.086 30.28 127.746 30.06 127.453 29.78C127.16 29.5 126.926 29.1667 126.753 28.78C126.58 28.3933 126.493 27.9667 126.493 27.5V23.2ZM135.637 21.72H133.977V20.48H135.637V16.6H136.937V20.48H138.717V21.72H136.937V27.94C136.937 28.42 137.057 28.7533 137.297 28.94C137.537 29.1133 137.824 29.2 138.157 29.2H138.717V30.52H138.057C137.377 30.52 136.804 30.3133 136.337 29.9C135.871 29.4733 135.637 28.7867 135.637 27.84V21.72ZM145.205 30.5V23.12C145.205 22.6933 145.058 22.3333 144.765 22.04C144.471 21.7333 144.125 21.58 143.725 21.58C143.498 21.58 143.185 21.62 142.785 21.7C142.385 21.78 141.998 21.9467 141.625 22.2V30.5H140.365V16.6H141.625V20.78C142.131 20.5133 142.551 20.3667 142.885 20.34C143.231 20.3133 143.511 20.3 143.725 20.3C144.098 20.3 144.451 20.38 144.785 20.54C145.118 20.6867 145.405 20.8933 145.645 21.16C145.898 21.4133 146.091 21.7133 146.225 22.06C146.371 22.4067 146.445 22.78 146.445 23.18V30.5H145.205ZM148.822 16.6H150.142V18.4H148.822V16.6ZM148.822 20.5H150.142V30.5H148.822V20.5ZM158.531 22C158.691 22.3467 158.784 22.6867 158.811 23.02C158.838 23.3533 158.851 23.7 158.851 24.06V30.5H157.551V23.46C157.551 22.8467 157.384 22.38 157.051 22.06C156.731 21.7267 156.371 21.56 155.971 21.56C155.744 21.56 155.451 21.5933 155.091 21.66C154.744 21.7133 154.338 21.8933 153.871 22.2V30.5H152.611V21.64L152.131 21.18L153.011 20.28L153.631 20.88C154.324 20.5067 154.991 20.32 155.631 20.32C156.231 20.32 156.798 20.4467 157.331 20.7C157.864 20.9533 158.264 21.3867 158.531 22ZM165.864 22.18C165.358 21.9133 164.938 21.7467 164.604 21.68C164.271 21.6133 163.991 21.58 163.764 21.58C163.364 21.58 163.018 21.7333 162.724 22.04C162.444 22.3333 162.304 22.6867 162.304 23.1V27.86C162.304 28.2867 162.444 28.6533 162.724 28.96C163.018 29.2667 163.371 29.42 163.784 29.42C163.891 29.42 163.998 29.42 164.104 29.42C164.211 29.4067 164.338 29.38 164.484 29.34C164.644 29.3 164.831 29.24 165.044 29.16C165.271 29.08 165.544 28.96 165.864 28.8V22.18ZM167.124 32.64C167.124 33.1467 167.038 33.58 166.864 33.94C166.704 34.3133 166.478 34.6133 166.184 34.84C165.891 35.08 165.551 35.2533 165.164 35.36C164.791 35.48 164.384 35.54 163.944 35.54C163.731 35.54 163.458 35.5067 163.124 35.44C162.791 35.3733 162.471 35.3 162.164 35.22C161.791 35.1267 161.404 35.0133 161.004 34.88L161.364 33.7C161.751 33.82 162.118 33.9267 162.464 34.02C162.758 34.1 163.044 34.1733 163.324 34.24C163.604 34.3067 163.811 34.34 163.944 34.34C164.464 34.34 164.918 34.2 165.304 33.92C165.691 33.64 165.884 33.22 165.884 32.66V30.26C165.458 30.4733 165.091 30.5933 164.784 30.62C164.478 30.66 164.211 30.68 163.984 30.68H163.784C163.398 30.68 163.038 30.6067 162.704 30.46C162.384 30.3 162.098 30.0933 161.844 29.84C161.591 29.5733 161.391 29.2667 161.244 28.92C161.111 28.5733 161.044 28.2 161.044 27.8V23.18C161.044 22.78 161.111 22.4067 161.244 22.06C161.391 21.7133 161.591 21.4133 161.844 21.16C162.098 20.8933 162.384 20.6867 162.704 20.54C163.038 20.38 163.398 20.3 163.784 20.3C164.078 20.3 164.418 20.3467 164.804 20.44C165.204 20.5333 165.631 20.6733 166.084 20.86L166.704 20.24L167.604 21.14L167.124 21.6V32.64Z" fill="#AFAFAF"/>
<defs>
<clipPath id="clip0_8_351">
<rect width="32" height="32" fill="white" transform="translate(9 9)"/>
</clipPath>
</defs>
</svg>
