<svg width="36" height="34" viewBox="0 0 36 34" fill="none" xmlns="http://www.w3.org/2000/svg">
<path d="M10.1597 33.1226C8.76447 34.0162 6.90901 33.6096 6.01537 32.2144C5.56387 31.5095 5.42742 30.6481 5.63899 29.8381L7.84455 21.3951L1.09752 15.8609C-0.183524 14.8101 -0.370204 12.9198 0.680557 11.6388C1.21144 10.9916 1.9886 10.5956 2.82426 10.5465L11.5356 10.0351L14.714 1.90813C15.3175 0.365081 17.0576 -0.396597 18.6006 0.206873C19.3802 0.511767 19.997 1.12852 20.3019 1.90813L23.4802 10.0351L32.1916 10.5465C33.8456 10.6436 35.1077 12.0632 35.0106 13.7172C34.9616 14.5529 34.5656 15.33 33.9184 15.8609L27.1713 21.3951L29.3769 29.8381C29.7956 31.4412 28.8356 33.0802 27.2325 33.499C26.4226 33.7105 25.5611 33.5741 24.8562 33.1226L17.5079 28.4159L10.1597 33.1226Z" fill="#52555A"/>
</svg>
