<svg width="23" height="24" viewBox="0 0 23 24" fill="none" xmlns="http://www.w3.org/2000/svg">
<path d="M11.5 0C15.0285 0 17.8889 2.82768 17.8889 6.31579C17.8889 8.78744 17.7543 10.1695 17.1436 11.6464C16.925 12.1752 16.6537 12.6515 16.3297 13.0707L18.028 13.7008C21.0189 14.8108 23 17.6379 23 20.7961V22.7368C23 23.4345 22.4279 24 21.7222 24H1.27778C0.572081 24 0 23.4345 0 22.7368V20.7997C0 17.6394 1.98368 14.8108 4.97742 13.7023L6.6732 13.0744C6.34792 12.6543 6.07568 12.1768 5.85638 11.6464C5.24569 10.1695 5.11111 8.78744 5.11111 6.31579C5.11111 2.82768 7.97151 0 11.5 0ZM11.5 15.1915C10.6407 15.1915 9.86933 15.0723 9.18557 14.8436L5.87384 16.0681C3.87801 16.8071 2.55556 18.6928 2.55556 20.7997V21.4737H20.4444V20.7961C20.4444 18.6907 19.1237 16.8059 17.1298 16.0659L13.8234 14.8406C13.1374 15.0712 12.363 15.1915 11.5 15.1915ZM11.5 2.52632C9.38291 2.52632 7.66667 4.22292 7.66667 6.31579C7.66667 10.8452 8.41922 12.6652 11.5 12.6652C14.5808 12.6652 15.3333 10.8452 15.3333 6.31579C15.3333 4.22292 13.6171 2.52632 11.5 2.52632Z" fill="white"/>
</svg>
