<svg width="48" height="48" viewBox="0 0 48 48" fill="none" xmlns="http://www.w3.org/2000/svg">
<g clip-path="url(#clip0_94_836)">
<path d="M41.9267 24.45L40.8692 16.95C40.6093 15.1649 39.7177 13.5323 38.3563 12.3487C36.9949 11.1651 35.2541 10.5092 33.4502 10.5H18.0002V33.876L20.4392 38.826C20.9234 39.8044 21.7427 40.5765 22.7481 41.0019C23.7534 41.4272 24.8781 41.4775 25.9174 41.1436C26.9568 40.8097 27.8417 40.1137 28.4112 39.1824C28.9808 38.2511 29.1971 37.1463 29.0207 36.069L28.5167 33H34.5002C35.5739 33.0001 36.6351 32.7696 37.612 32.3242C38.5889 31.8788 39.4588 31.2288 40.1629 30.4182C40.8669 29.6076 41.3888 28.6553 41.6931 27.6257C41.9974 26.5961 42.0771 25.5131 41.9267 24.45Z" fill="#E80505"/>
<path d="M6 18V25.5C6.00238 27.4884 6.79332 29.3947 8.19933 30.8007C9.60534 32.2067 11.5116 32.9976 13.5 33H15V10.5H13.5C11.5116 10.5024 9.60534 11.2933 8.19933 12.6993C6.79332 14.1053 6.00238 16.0116 6 18H6Z" fill="#E80505"/>
</g>
<defs>
<clipPath id="clip0_94_836">
<rect width="36" height="36" fill="white" transform="translate(6 6)"/>
</clipPath>
</defs>
</svg>
