<svg width="48" height="48" viewBox="0 0 48 48" fill="none" xmlns="http://www.w3.org/2000/svg">
<circle cx="24" cy="24" r="24" fill="#1810AC"/>
<path d="M19.5275 31.185L29.1496 21.5629L27.437 19.8503L17.8182 29.4691L17.1666 31.8425L19.5275 31.185ZM30.0059 13.8562C30.4788 13.3833 31.2456 13.3833 31.7185 13.8562L35.1437 17.2814C35.6166 17.7543 35.6166 18.5211 35.1437 18.994L21.2401 32.8976C20.9451 33.1926 20.579 33.4063 20.1772 33.5182L15.758 34.7489C15.1137 34.9283 14.446 34.5515 14.2666 33.9072C14.2078 33.6961 14.2074 33.473 14.2654 33.2617L15.4826 28.8278C15.5939 28.4227 15.8086 28.0535 16.1056 27.7564L30.0059 13.8562ZM30.8622 16.4251L29.1496 18.1377L30.8622 19.8503L32.5748 18.1377L30.8622 16.4251Z" fill="white"/>
</svg>
