<svg width="48" height="48" viewBox="0 0 48 48" fill="none" xmlns="http://www.w3.org/2000/svg">
<path fill-rule="evenodd" clip-rule="evenodd" d="M24.0199 0.5C10.7375 0.5 0 11.3167 0 24.6983C0 35.395 6.87988 44.4495 16.4241 47.6542C17.6174 47.8951 18.0545 47.1335 18.0545 46.4929C18.0545 45.9319 18.0151 44.009 18.0151 42.0055C11.3334 43.448 9.94198 39.1209 9.94198 39.1209C8.86818 36.3164 7.27715 35.5956 7.27715 35.5956C5.09022 34.1132 7.43645 34.1132 7.43645 34.1132C9.86233 34.2735 11.1353 36.5971 11.1353 36.5971C13.2824 40.2827 16.7422 39.2413 18.1341 38.6002C18.3328 37.0377 18.9695 35.956 19.6455 35.3552C14.3163 34.7942 8.70937 32.711 8.70937 23.4161C8.70937 20.7719 9.66321 18.6086 11.1746 16.9261C10.9361 16.3253 10.1008 13.8409 11.4135 10.5157C11.4135 10.5157 13.4417 9.8746 18.0146 12.9996C19.9725 12.4699 21.9916 12.2005 24.0199 12.1982C26.048 12.1982 28.1154 12.479 30.0246 12.9996C34.5981 9.8746 36.6262 10.5157 36.6262 10.5157C37.9389 13.8409 37.1031 16.3253 36.8646 16.9261C38.4158 18.6086 39.3303 20.7719 39.3303 23.4161C39.3303 32.711 33.7234 34.7539 28.3544 35.3552C29.2296 36.1163 29.9848 37.5584 29.9848 39.8421C29.9848 43.0871 29.9454 45.6915 29.9454 46.4924C29.9454 47.1335 30.383 47.8951 31.5758 47.6547C41.12 44.4491 47.9999 35.395 47.9999 24.6983C48.0392 11.3167 37.2624 0.5 24.0199 0.5Z" fill="white"/>
</svg>
