<svg width="193" height="59" viewBox="0 0 193 59" fill="none" xmlns="http://www.w3.org/2000/svg">
<mask id="path-1-outside-1_3_7" maskUnits="userSpaceOnUse" x="-2" y="-1" width="196" height="61" fill="black">
<rect fill="white" x="-2" y="-1" width="196" height="61"/>
<path d="M17.624 32.144L18.872 27.872H14.84L8.264 50H0.2L14.744 0.607998H22.808L16.664 21.536H20.744L22.04 17.168L27.176 25.184L17.624 32.144ZM27.416 26.384L20.456 50H12.296L17.048 34.016L27.416 26.384ZM22.424 15.728L26.888 0.607998H35L28.04 24.32L22.424 15.728ZM46.4236 8.72L42.7276 21.344H50.4556L48.3916 28.448H40.6156L36.4876 42.56H45.0796L40.9996 50H26.2156L38.3596 8.72H46.4236ZM54.4396 7.568H34.8556L39.2716 0.607998H56.4556L54.4396 7.568ZM66.0774 23.504C66.5254 23.504 66.9254 23.392 67.2774 23.168C67.6294 22.912 67.9174 22.4 68.1414 21.632L71.6934 9.488C72.0454 8.208 71.6134 7.568 70.3974 7.568H55.9494L60.3654 0.607998H76.0614C77.8854 0.607998 79.1334 1.152 79.8054 2.24C80.4774 3.328 80.5734 4.688 80.0934 6.32L74.6694 24.464C74.4454 25.2 74.0294 25.872 73.4214 26.48C72.8134 27.056 71.8854 27.344 70.6374 27.344C71.7894 27.44 72.4774 28 72.7014 29.024C72.9574 30.048 72.8774 31.264 72.4614 32.672L67.3254 50H59.2614L64.8294 31.184C64.9574 30.736 64.9414 30.384 64.7814 30.128C64.6214 29.872 64.2854 29.744 63.7734 29.744H61.3734L55.3734 50H47.3094L59.4534 8.72H67.5174L63.1974 23.504H66.0774ZM96.8139 9.248C97.1339 8.128 96.6859 7.568 95.4699 7.568H81.2619L85.6779 0.607998H101.47C103.294 0.607998 104.574 1.152 105.31 2.24C106.078 3.328 106.222 4.688 105.742 6.32L94.5579 44.768C94.2699 45.792 93.8379 46.64 93.2619 47.312C92.7179 47.984 92.0939 48.528 91.3899 48.944C90.6859 49.328 89.9179 49.6 89.0859 49.76C88.2859 49.92 87.4699 50 86.6379 50H79.2459C78.3819 50 77.5819 49.856 76.8459 49.568C76.1419 49.28 75.5659 48.864 75.1179 48.32C74.6699 47.744 74.3819 47.04 74.2539 46.208C74.1579 45.376 74.2699 44.4 74.5899 43.28L84.7659 8.72H92.8299L83.0859 41.792C82.8299 42.624 83.1179 43.04 83.9499 43.04H85.9179C86.3339 43.04 86.6379 42.944 86.8299 42.752C87.0539 42.528 87.2299 42.208 87.3579 41.792L96.8139 9.248Z"/>
<path d="M119.5 8.72H127.564L123.868 21.344H131.164L129.052 28.448H121.756L115.42 50H107.356L119.5 8.72ZM135.58 7.568H115.996L120.412 0.607998H137.596L135.58 7.568ZM153.928 50H145.816L146.152 48.944L156.616 41.12L153.928 50ZM146.632 47.168L147.927 42.848H136.552L125.032 58.736H115.479L158.248 0.607998H168.472L157.144 39.344L151.48 30.704L155.32 17.408L141.352 36.512H149.752L151.048 32.24L156.232 40.064L146.632 47.168ZM167.264 50H159.2L171.344 8.72H179.408L167.264 50ZM183.152 9.248C183.472 8.128 183.024 7.568 181.808 7.568H167.84L172.256 0.607998H187.856C189.68 0.607998 190.96 1.152 191.696 2.24C192.432 3.328 192.56 4.688 192.08 6.32L179.216 50H171.152L183.152 9.248Z"/>
</mask>
<path d="M17.624 32.144L18.872 27.872H14.84L8.264 50H0.2L14.744 0.607998H22.808L16.664 21.536H20.744L22.04 17.168L27.176 25.184L17.624 32.144ZM27.416 26.384L20.456 50H12.296L17.048 34.016L27.416 26.384ZM22.424 15.728L26.888 0.607998H35L28.04 24.32L22.424 15.728ZM46.4236 8.72L42.7276 21.344H50.4556L48.3916 28.448H40.6156L36.4876 42.56H45.0796L40.9996 50H26.2156L38.3596 8.72H46.4236ZM54.4396 7.568H34.8556L39.2716 0.607998H56.4556L54.4396 7.568ZM66.0774 23.504C66.5254 23.504 66.9254 23.392 67.2774 23.168C67.6294 22.912 67.9174 22.4 68.1414 21.632L71.6934 9.488C72.0454 8.208 71.6134 7.568 70.3974 7.568H55.9494L60.3654 0.607998H76.0614C77.8854 0.607998 79.1334 1.152 79.8054 2.24C80.4774 3.328 80.5734 4.688 80.0934 6.32L74.6694 24.464C74.4454 25.2 74.0294 25.872 73.4214 26.48C72.8134 27.056 71.8854 27.344 70.6374 27.344C71.7894 27.44 72.4774 28 72.7014 29.024C72.9574 30.048 72.8774 31.264 72.4614 32.672L67.3254 50H59.2614L64.8294 31.184C64.9574 30.736 64.9414 30.384 64.7814 30.128C64.6214 29.872 64.2854 29.744 63.7734 29.744H61.3734L55.3734 50H47.3094L59.4534 8.72H67.5174L63.1974 23.504H66.0774ZM96.8139 9.248C97.1339 8.128 96.6859 7.568 95.4699 7.568H81.2619L85.6779 0.607998H101.47C103.294 0.607998 104.574 1.152 105.31 2.24C106.078 3.328 106.222 4.688 105.742 6.32L94.5579 44.768C94.2699 45.792 93.8379 46.64 93.2619 47.312C92.7179 47.984 92.0939 48.528 91.3899 48.944C90.6859 49.328 89.9179 49.6 89.0859 49.76C88.2859 49.92 87.4699 50 86.6379 50H79.2459C78.3819 50 77.5819 49.856 76.8459 49.568C76.1419 49.28 75.5659 48.864 75.1179 48.32C74.6699 47.744 74.3819 47.04 74.2539 46.208C74.1579 45.376 74.2699 44.4 74.5899 43.28L84.7659 8.72H92.8299L83.0859 41.792C82.8299 42.624 83.1179 43.04 83.9499 43.04H85.9179C86.3339 43.04 86.6379 42.944 86.8299 42.752C87.0539 42.528 87.2299 42.208 87.3579 41.792L96.8139 9.248Z" fill="#87161A"/>
<path d="M119.5 8.72H127.564L123.868 21.344H131.164L129.052 28.448H121.756L115.42 50H107.356L119.5 8.72ZM135.58 7.568H115.996L120.412 0.607998H137.596L135.58 7.568ZM153.928 50H145.816L146.152 48.944L156.616 41.12L153.928 50ZM146.632 47.168L147.927 42.848H136.552L125.032 58.736H115.479L158.248 0.607998H168.472L157.144 39.344L151.48 30.704L155.32 17.408L141.352 36.512H149.752L151.048 32.24L156.232 40.064L146.632 47.168ZM167.264 50H159.2L171.344 8.72H179.408L167.264 50ZM183.152 9.248C183.472 8.128 183.024 7.568 181.808 7.568H167.84L172.256 0.607998H187.856C189.68 0.607998 190.96 1.152 191.696 2.24C192.432 3.328 192.56 4.688 192.08 6.32L179.216 50H171.152L183.152 9.248Z" fill="#1810AC"/>
<path d="M17.624 32.144L16.6641 31.8636L15.8413 34.6803L18.2129 32.9522L17.624 32.144ZM18.872 27.872L19.8319 28.1524L20.2059 26.872H18.872V27.872ZM14.84 27.872V26.872H14.094L13.8814 27.5871L14.84 27.872ZM8.264 50V51H9.01004L9.22257 50.2849L8.264 50ZM0.2 50L-0.759276 49.7175L-1.13691 51H0.2V50ZM14.744 0.607998V-0.392002H13.996L13.7847 0.325529L14.744 0.607998ZM22.808 0.607998L23.7675 0.889688L24.1438 -0.392002H22.808V0.607998ZM16.664 21.536L15.7045 21.2543L15.3282 22.536H16.664V21.536ZM20.744 21.536V22.536H21.4904L21.7027 21.8204L20.744 21.536ZM22.04 17.168L22.882 16.6285L21.703 14.7883L21.0813 16.8836L22.04 17.168ZM27.176 25.184L27.7649 25.9922L28.5261 25.4376L28.018 24.6445L27.176 25.184ZM27.416 26.384L28.3752 26.6667L29.2147 23.8182L26.8232 25.5787L27.416 26.384ZM20.456 50V51H21.2038L21.4152 50.2827L20.456 50ZM12.296 50L11.3375 49.715L10.9554 51H12.296V50ZM17.048 34.016L16.4552 33.2107L16.1851 33.4095L16.0895 33.731L17.048 34.016ZM22.424 15.728L21.4649 15.4448L21.334 15.8882L21.587 16.2751L22.424 15.728ZM26.888 0.607998V-0.392002H26.1406L25.9289 0.324843L26.888 0.607998ZM35 0.607998L35.9595 0.889638L36.3357 -0.392002H35V0.607998ZM28.04 24.32L27.2029 24.8671L28.389 26.6817L28.9995 24.6016L28.04 24.32ZM18.5839 32.4244L19.8319 28.1524L17.9121 27.5916L16.6641 31.8636L18.5839 32.4244ZM18.872 26.872H14.84V28.872H18.872V26.872ZM13.8814 27.5871L7.30543 49.7151L9.22257 50.2849L15.7986 28.1569L13.8814 27.5871ZM8.264 49H0.2V51H8.264V49ZM1.15928 50.2825L15.7033 0.890467L13.7847 0.325529L-0.759276 49.7175L1.15928 50.2825ZM14.744 1.608H22.808V-0.392002H14.744V1.608ZM21.8485 0.326308L15.7045 21.2543L17.6235 21.8177L23.7675 0.889688L21.8485 0.326308ZM16.664 22.536H20.744V20.536H16.664V22.536ZM21.7027 21.8204L22.9987 17.4524L21.0813 16.8836L19.7853 21.2516L21.7027 21.8204ZM21.198 17.7075L26.334 25.7235L28.018 24.6445L22.882 16.6285L21.198 17.7075ZM26.5871 24.3758L17.0351 31.3358L18.2129 32.9522L27.7649 25.9922L26.5871 24.3758ZM26.4568 26.1013L19.4968 49.7173L21.4152 50.2827L28.3752 26.6667L26.4568 26.1013ZM20.456 49H12.296V51H20.456V49ZM13.2545 50.285L18.0065 34.301L16.0895 33.731L11.3375 49.715L13.2545 50.285ZM17.6408 34.8213L28.0088 27.1893L26.8232 25.5787L16.4552 33.2107L17.6408 34.8213ZM23.3831 16.0112L27.8471 0.891153L25.9289 0.324843L21.4649 15.4448L23.3831 16.0112ZM26.888 1.608H35V-0.392002H26.888V1.608ZM34.0405 0.326357L27.0805 24.0384L28.9995 24.6016L35.9595 0.889638L34.0405 0.326357ZM28.8771 23.7729L23.2611 15.1809L21.587 16.2751L27.2029 24.8671L28.8771 23.7729ZM46.4236 8.72L47.3833 9.00098L47.7584 7.72H46.4236V8.72ZM42.7276 21.344L41.7679 21.063L41.3929 22.344H42.7276V21.344ZM50.4556 21.344L51.4159 21.623L51.7875 20.344H50.4556V21.344ZM48.3916 28.448V29.448H49.1424L49.3519 28.727L48.3916 28.448ZM40.6156 28.448V27.448H39.8662L39.6558 28.1672L40.6156 28.448ZM36.4876 42.56L35.5278 42.2792L35.1532 43.56H36.4876V42.56ZM45.0796 42.56L45.9564 43.0408L46.7685 41.56H45.0796V42.56ZM40.9996 50V51H41.5917L41.8764 50.4808L40.9996 50ZM26.2156 50L25.2563 49.7178L24.8791 51H26.2156V50ZM38.3596 8.72V7.72H37.6114L37.4003 8.43777L38.3596 8.72ZM54.4396 7.568V8.568H55.1911L55.4001 7.84622L54.4396 7.568ZM34.8556 7.568L34.0112 7.03225L33.0368 8.568H34.8556V7.568ZM39.2716 0.607998V-0.392002H38.7218L38.4272 0.0722532L39.2716 0.607998ZM56.4556 0.607998L57.4161 0.886217L57.7864 -0.392002H56.4556V0.607998ZM45.4639 8.43902L41.7679 21.063L43.6873 21.625L47.3833 9.00098L45.4639 8.43902ZM42.7276 22.344H50.4556V20.344H42.7276V22.344ZM49.4953 21.065L47.4313 28.169L49.3519 28.727L51.4159 21.623L49.4953 21.065ZM48.3916 27.448H40.6156V29.448H48.3916V27.448ZM39.6558 28.1672L35.5278 42.2792L37.4474 42.8408L41.5754 28.7288L39.6558 28.1672ZM36.4876 43.56H45.0796V41.56H36.4876V43.56ZM44.2028 42.0792L40.1228 49.5192L41.8764 50.4808L45.9564 43.0408L44.2028 42.0792ZM40.9996 49H26.2156V51H40.9996V49ZM27.175 50.2822L39.319 9.00223L37.4003 8.43777L25.2563 49.7178L27.175 50.2822ZM38.3596 9.72H46.4236V7.72H38.3596V9.72ZM54.4396 6.568H34.8556V8.568H54.4396V6.568ZM35.7 8.10374L40.116 1.14374L38.4272 0.0722532L34.0112 7.03225L35.7 8.10374ZM39.2716 1.608H56.4556V-0.392002H39.2716V1.608ZM55.4951 0.329779L53.4791 7.28978L55.4001 7.84622L57.4161 0.886217L55.4951 0.329779ZM67.2774 23.168L67.8142 24.0117L67.8404 23.995L67.8655 23.9767L67.2774 23.168ZM68.1414 21.632L67.1816 21.3513L67.1814 21.352L68.1414 21.632ZM71.6934 9.488L72.6532 9.76873L72.6554 9.76096L72.6576 9.75315L71.6934 9.488ZM55.9494 7.568L55.105 7.03225L54.1306 8.568H55.9494V7.568ZM60.3654 0.607998V-0.392002H59.8156L59.521 0.0722532L60.3654 0.607998ZM79.8054 2.24L78.9546 2.76549V2.76549L79.8054 2.24ZM80.0934 6.32L81.0515 6.60642L81.0527 6.60217L80.0934 6.32ZM74.6694 24.464L75.6261 24.7552L75.6275 24.7504L74.6694 24.464ZM73.4214 26.48L74.1091 27.206L74.1189 27.1967L74.1285 27.1871L73.4214 26.48ZM70.6374 27.344V26.344L70.5543 28.3405L70.6374 27.344ZM72.7014 29.024L71.7245 29.2377L71.7276 29.2522L71.7312 29.2665L72.7014 29.024ZM72.4614 32.672L73.4202 32.9562L73.4204 32.9553L72.4614 32.672ZM67.3254 50V51H68.072L68.2841 50.2842L67.3254 50ZM59.2614 50L58.3025 49.7162L57.9226 51H59.2614V50ZM64.8294 31.184L65.7883 31.4678L65.7909 31.4587L64.8294 31.184ZM64.7814 30.128L65.6294 29.598V29.598L64.7814 30.128ZM61.3734 29.744V28.744H60.6266L60.4146 29.46L61.3734 29.744ZM55.3734 50V51H56.1201L56.3322 50.284L55.3734 50ZM47.3094 50L46.35 49.7178L45.9728 51H47.3094V50ZM59.4534 8.72V7.72H58.7052L58.494 8.43777L59.4534 8.72ZM67.5174 8.72L68.4772 9.00048L68.8514 7.72H67.5174V8.72ZM63.1974 23.504L62.2375 23.2235L61.8633 24.504H63.1974V23.504ZM66.0774 24.504C66.7009 24.504 67.2899 24.3453 67.8142 24.0117L66.7405 22.3243C66.5609 22.4386 66.3498 22.504 66.0774 22.504V24.504ZM67.8655 23.9767C68.4941 23.5196 68.8608 22.7368 69.1014 21.912L67.1814 21.352C66.974 22.0632 66.7647 22.3044 66.6892 22.3593L67.8655 23.9767ZM69.1012 21.9127L72.6532 9.76873L70.7336 9.20727L67.1816 21.3513L69.1012 21.9127ZM72.6576 9.75315C72.8578 9.02508 72.9276 8.178 72.4622 7.48852C71.9718 6.76202 71.14 6.568 70.3974 6.568V8.568C70.8708 8.568 70.8629 8.69397 70.8045 8.60747C70.7863 8.58047 70.8071 8.58967 70.8112 8.68963C70.8156 8.79513 70.7994 8.9675 70.7292 9.22284L72.6576 9.75315ZM70.3974 6.568H55.9494V8.568H70.3974V6.568ZM56.7938 8.10374L61.2098 1.14374L59.521 0.0722532L55.105 7.03225L56.7938 8.10374ZM60.3654 1.608H76.0614V-0.392002H60.3654V1.608ZM76.0614 1.608C77.7007 1.608 78.5361 2.08802 78.9546 2.76549L80.6562 1.7145C79.7306 0.215972 78.0701 -0.392002 76.0614 -0.392002V1.608ZM78.9546 2.76549C79.4324 3.53905 79.5617 4.5836 79.134 6.03783L81.0527 6.60217C81.585 4.7924 81.5224 3.11694 80.6562 1.7145L78.9546 2.76549ZM79.1353 6.03358L73.7113 24.1776L75.6275 24.7504L81.0515 6.60642L79.1353 6.03358ZM73.7127 24.1728C73.5419 24.7341 73.2201 25.2671 72.7143 25.7729L74.1285 27.1871C74.8387 26.4769 75.3489 25.6659 75.6261 24.7552L73.7127 24.1728ZM72.7336 25.754C72.3848 26.0845 71.7528 26.344 70.6374 26.344V28.344C72.018 28.344 73.2419 28.0275 74.1091 27.206L72.7336 25.754ZM70.5543 28.3405C70.9898 28.3768 71.2395 28.4923 71.3861 28.6116C71.5241 28.7239 71.6517 28.9049 71.7245 29.2377L73.6783 28.8103C73.5271 28.1191 73.1986 27.5081 72.6487 27.0604C72.1072 26.6197 71.437 26.4072 70.7204 26.3475L70.5543 28.3405ZM71.7312 29.2665C71.9302 30.0626 71.8867 31.088 71.5024 32.3887L73.4204 32.9553C73.8681 31.44 73.9845 30.0334 73.6715 28.7815L71.7312 29.2665ZM71.5026 32.3878L66.3666 49.7158L68.2841 50.2842L73.4202 32.9562L71.5026 32.3878ZM67.3254 49H59.2614V51H67.3254V49ZM60.2203 50.2838L65.7883 31.4678L63.8705 30.9002L58.3025 49.7162L60.2203 50.2838ZM65.7909 31.4587C65.9547 30.8854 66.0048 30.1986 65.6294 29.598L63.9334 30.658C63.908 30.6174 63.9129 30.5963 63.9144 30.6294C63.9162 30.6689 63.9111 30.7578 63.8679 30.9093L65.7909 31.4587ZM65.6294 29.598C65.1869 28.89 64.3865 28.744 63.7734 28.744V30.744C63.8607 30.744 63.9269 30.7495 63.9751 30.7568C64.0235 30.7641 64.0475 30.7722 64.0534 30.7745C64.0586 30.7765 64.0425 30.7711 64.0162 30.7507C63.9885 30.7293 63.9584 30.698 63.9334 30.658L65.6294 29.598ZM63.7734 28.744H61.3734V30.744H63.7734V28.744ZM60.4146 29.46L54.4146 49.716L56.3322 50.284L62.3322 30.028L60.4146 29.46ZM55.3734 49H47.3094V51H55.3734V49ZM48.2687 50.2822L60.4127 9.00223L58.494 8.43777L46.35 49.7178L48.2687 50.2822ZM59.4534 9.72H67.5174V7.72H59.4534V9.72ZM66.5575 8.43952L62.2375 23.2235L64.1572 23.7845L68.4772 9.00048L66.5575 8.43952ZM63.1974 24.504H66.0774V22.504H63.1974V24.504ZM96.8139 9.248L97.7742 9.52702L97.7754 9.52272L96.8139 9.248ZM81.2619 7.568L80.4175 7.03225L79.4431 8.568H81.2619V7.568ZM85.6779 0.607998V-0.392002H85.1281L84.8335 0.0722532L85.6779 0.607998ZM105.31 2.24L104.482 2.80031L104.487 2.80855L104.493 2.81668L105.31 2.24ZM105.742 6.32L104.783 6.03783L104.782 6.04069L105.742 6.32ZM94.5579 44.768L93.5976 44.4887L93.5952 44.4973L94.5579 44.768ZM93.2619 47.312L92.5026 46.6612L92.4935 46.6719L92.4846 46.6828L93.2619 47.312ZM91.3899 48.944L91.8687 49.8219L91.8838 49.8137L91.8986 49.8049L91.3899 48.944ZM89.0859 49.76L88.897 48.778L88.8898 48.7794L89.0859 49.76ZM76.8459 49.568L76.4672 50.4935L76.4743 50.4964L76.4815 50.4992L76.8459 49.568ZM75.1179 48.32L74.3285 48.9339L74.3371 48.9449L74.3459 48.9557L75.1179 48.32ZM74.2539 46.208L73.2605 46.3226L73.2626 46.3414L73.2655 46.3601L74.2539 46.208ZM74.5899 43.28L73.6306 42.9975L73.6283 43.0053L74.5899 43.28ZM84.7659 8.72V7.72H84.0179L83.8066 8.43754L84.7659 8.72ZM92.8299 8.72L93.7891 9.00262L94.167 7.72H92.8299V8.72ZM83.0859 41.792L84.0417 42.0861L84.0451 42.0746L83.0859 41.792ZM86.8299 42.752L86.1228 42.0449L86.1228 42.0449L86.8299 42.752ZM87.3579 41.792L88.3137 42.0861L88.316 42.0786L88.3182 42.071L87.3579 41.792ZM97.7754 9.52272C97.9682 8.84802 98.0257 8.02205 97.4987 7.3633C96.9858 6.72218 96.1762 6.568 95.4699 6.568V8.568C95.704 8.568 95.8448 8.59583 95.9189 8.62077C95.9861 8.64337 95.9692 8.65293 95.937 8.61269C95.9027 8.56976 95.9093 8.54359 95.9128 8.58897C95.9171 8.64518 95.9114 8.7667 95.8524 8.97328L97.7754 9.52272ZM95.4699 6.568H81.2619V8.568H95.4699V6.568ZM82.1063 8.10374L86.5223 1.14374L84.8335 0.0722532L80.4175 7.03225L82.1063 8.10374ZM85.6779 1.608H101.47V-0.392002H85.6779V1.608ZM101.47 1.608C103.102 1.608 103.998 2.08611 104.482 2.80031L106.138 1.67969C105.149 0.217885 103.485 -0.392002 101.47 -0.392002V1.608ZM104.493 2.81668C105.038 3.58837 105.202 4.61024 104.783 6.03783L106.701 6.60216C107.241 4.76576 107.118 3.06763 106.127 1.66331L104.493 2.81668ZM104.782 6.04069L93.5977 44.4887L95.5181 45.0473L106.702 6.59931L104.782 6.04069ZM93.5952 44.4973C93.3388 45.4091 92.9669 46.1196 92.5026 46.6612L94.0211 47.9628C94.7089 47.1604 95.201 46.1749 95.5205 45.0387L93.5952 44.4973ZM92.4846 46.6828C92.0113 47.2675 91.4768 47.7311 90.8811 48.0831L91.8986 49.8049C92.711 49.3249 93.4245 48.7005 94.0391 47.9412L92.4846 46.6828ZM90.911 48.0661C90.3027 48.3979 89.6333 48.6364 88.897 48.778L89.2747 50.742C90.2024 50.5636 91.069 50.2581 91.8687 49.8219L90.911 48.0661ZM88.8898 48.7794C88.1556 48.9263 87.4053 49 86.6379 49V51C87.5344 51 88.4162 50.9137 89.282 50.7406L88.8898 48.7794ZM86.6379 49H79.2459V51H86.6379V49ZM79.2459 49C78.4949 49 77.8198 48.8753 77.2103 48.6368L76.4815 50.4992C77.344 50.8367 78.2688 51 79.2459 51V49ZM77.2245 48.6425C76.6611 48.412 76.2244 48.0906 75.8898 47.6843L74.3459 48.9557C74.9073 49.6374 75.6227 50.148 76.4672 50.4935L77.2245 48.6425ZM75.9072 47.7061C75.5789 47.284 75.3484 46.7457 75.2422 46.0559L73.2655 46.3601C73.4154 47.3343 73.7608 48.204 74.3285 48.9339L75.9072 47.7061ZM75.2473 46.0934C75.171 45.4323 75.2544 44.5943 75.5514 43.5547L73.6283 43.0053C73.2854 44.2057 73.1447 45.3197 73.2605 46.3226L75.2473 46.0934ZM75.5492 43.5625L85.7252 9.00245L83.8066 8.43754L73.6306 42.9975L75.5492 43.5625ZM84.7659 9.72H92.8299V7.72H84.7659V9.72ZM91.8706 8.43738L82.1266 41.5094L84.0451 42.0746L93.7891 9.00262L91.8706 8.43738ZM82.1301 41.4979C81.9749 42.0024 81.8758 42.7022 82.2877 43.2972C82.7138 43.9127 83.4195 44.04 83.9499 44.04V42.04C83.8867 42.04 83.8414 42.036 83.8112 42.0315C83.7808 42.0269 83.771 42.0227 83.7761 42.0246C83.7818 42.0267 83.8048 42.0361 83.8361 42.0591C83.8685 42.0829 83.9026 42.1163 83.9321 42.1588C83.9613 42.201 83.9782 42.2413 83.9872 42.2719C83.9958 42.3013 83.9957 42.3168 83.9955 42.3124C83.9954 42.3075 83.9955 42.2868 84.0021 42.2471C84.0086 42.2077 84.0206 42.1544 84.0417 42.0861L82.1301 41.4979ZM83.9499 44.04H85.9179V42.04H83.9499V44.04ZM85.9179 44.04C86.4608 44.04 87.0782 43.9179 87.537 43.4591L86.1228 42.0449C86.1586 42.0091 86.1822 42.0064 86.1567 42.0144C86.1267 42.0239 86.053 42.04 85.9179 42.04V44.04ZM87.537 43.4591C87.9113 43.0848 88.1547 42.6026 88.3137 42.0861L86.4021 41.4979C86.305 41.8134 86.1964 41.9712 86.1228 42.0449L87.537 43.4591ZM88.3182 42.071L97.7742 9.52702L95.8536 8.96898L86.3976 41.513L88.3182 42.071ZM119.5 8.72V7.72H118.752L118.541 8.43777L119.5 8.72ZM127.564 8.72L128.524 9.00098L128.899 7.72H127.564V8.72ZM123.868 21.344L122.909 21.063L122.534 22.344H123.868V21.344ZM131.164 21.344L132.123 21.629L132.505 20.344H131.164V21.344ZM129.052 28.448V29.448H129.798L130.011 28.733L129.052 28.448ZM121.756 28.448V27.448H121.008L120.797 28.1659L121.756 28.448ZM115.42 50V51H116.169L116.38 50.2821L115.42 50ZM107.356 50L106.397 49.7178L106.02 51H107.356V50ZM135.58 7.568V8.568H136.332L136.541 7.84622L135.58 7.568ZM115.996 7.568L115.152 7.03225L114.177 8.568H115.996V7.568ZM120.412 0.607998V-0.392002H119.862L119.568 0.0722532L120.412 0.607998ZM137.596 0.607998L138.557 0.886217L138.927 -0.392002H137.596V0.607998ZM119.5 9.72H127.564V7.72H119.5V9.72ZM126.605 8.43902L122.909 21.063L124.828 21.625L128.524 9.00098L126.605 8.43902ZM123.868 22.344H131.164V20.344H123.868V22.344ZM130.206 21.059L128.094 28.163L130.011 28.733L132.123 21.629L130.206 21.059ZM129.052 27.448H121.756V29.448H129.052V27.448ZM120.797 28.1659L114.461 49.7179L116.38 50.2821L122.716 28.73L120.797 28.1659ZM115.42 49H107.356V51H115.42V49ZM108.316 50.2822L120.46 9.00223L118.541 8.43777L106.397 49.7178L108.316 50.2822ZM135.58 6.568H115.996V8.568H135.58V6.568ZM116.841 8.10374L121.257 1.14374L119.568 0.0722532L115.152 7.03225L116.841 8.10374ZM120.412 1.608H137.596V-0.392002H120.412V1.608ZM136.636 0.329779L134.62 7.28978L136.541 7.84622L138.557 0.886217L136.636 0.329779ZM153.928 50V51H154.67L154.885 50.2897L153.928 50ZM145.816 50L144.863 49.6968L144.448 51H145.816V50ZM146.152 48.944L145.553 48.1431L145.296 48.3352L145.199 48.6408L146.152 48.944ZM156.616 41.12L157.573 41.4097L158.454 38.4963L156.017 40.3191L156.616 41.12ZM146.632 47.168L145.674 46.8807L144.81 49.76L147.226 47.9718L146.632 47.168ZM147.928 42.848L148.885 43.1353L149.272 41.848H147.928V42.848ZM136.551 42.848V41.848H136.041L135.742 42.261L136.551 42.848ZM125.032 58.736V59.736H125.542L125.841 59.323L125.032 58.736ZM115.479 58.736L114.674 58.1434L113.502 59.736H115.479V58.736ZM158.247 0.607998V-0.392002H157.742L157.442 0.0153662L158.247 0.607998ZM168.471 0.607998L169.431 0.888683L169.806 -0.392002H168.471V0.607998ZM157.143 39.344L156.307 39.8923L157.495 41.7044L158.103 39.6247L157.143 39.344ZM151.48 30.704L150.519 30.4265L150.391 30.868L150.643 31.2523L151.48 30.704ZM155.32 17.408L156.28 17.6855L154.512 16.8178L155.32 17.408ZM141.352 36.512L140.544 35.9218L139.382 37.512H141.352V36.512ZM149.751 36.512V37.512H150.493L150.708 36.8023L149.751 36.512ZM151.048 32.24L151.881 31.6877L150.707 29.9163L150.091 31.9497L151.048 32.24ZM156.232 40.064L156.826 40.8678L157.59 40.3031L157.065 39.5117L156.232 40.064ZM153.928 49H145.816V51H153.928V49ZM146.768 50.3032L147.104 49.2472L145.199 48.6408L144.863 49.6968L146.768 50.3032ZM146.75 49.7449L157.214 41.9209L156.017 40.3191L145.553 48.1431L146.75 49.7449ZM155.658 40.8303L152.97 49.7103L154.885 50.2897L157.573 41.4097L155.658 40.8303ZM147.589 47.4553L148.885 43.1353L146.97 42.5607L145.674 46.8807L147.589 47.4553ZM147.928 41.848H136.551V43.848H147.928V41.848ZM135.742 42.261L124.222 58.149L125.841 59.323L137.361 43.435L135.742 42.261ZM125.032 57.736H115.479V59.736H125.032V57.736ZM116.285 59.3286L159.053 1.20063L157.442 0.0153662L114.674 58.1434L116.285 59.3286ZM158.247 1.608H168.471V-0.392002H158.247V1.608ZM167.512 0.327313L156.184 39.0633L158.103 39.6247L169.431 0.888683L167.512 0.327313ZM157.98 38.7957L152.316 30.1557L150.643 31.2523L156.307 39.8923L157.98 38.7957ZM152.44 30.9815L156.28 17.6855L154.359 17.1305L150.519 30.4265L152.44 30.9815ZM154.512 16.8178L140.544 35.9218L142.159 37.1022L156.127 17.9982L154.512 16.8178ZM141.352 37.512H149.751V35.512H141.352V37.512ZM150.708 36.8023L152.004 32.5303L150.091 31.9497L148.795 36.2217L150.708 36.8023ZM150.214 32.7923L155.398 40.6163L157.065 39.5117L151.881 31.6877L150.214 32.7923ZM155.637 39.2602L146.037 46.3642L147.226 47.9718L156.826 40.8678L155.637 39.2602ZM167.264 50V51H168.012L168.223 50.2822L167.264 50ZM159.2 50L158.241 49.7178L157.863 51H159.2V50ZM171.344 8.72V7.72H170.596L170.385 8.43777L171.344 8.72ZM179.408 8.72L180.367 9.00223L180.745 7.72H179.408V8.72ZM183.152 9.248L184.111 9.53048L184.114 9.52272L183.152 9.248ZM167.84 7.568L166.996 7.03225L166.021 8.568H167.84V7.568ZM172.256 0.607998V-0.392002H171.706L171.412 0.0722532L172.256 0.607998ZM191.696 2.24L192.524 1.67969L192.524 1.67969L191.696 2.24ZM192.08 6.32L193.039 6.60251L193.039 6.60216L192.08 6.32ZM179.216 50V51H179.964L180.175 50.2825L179.216 50ZM171.152 50L170.193 49.7175L169.815 51H171.152V50ZM167.264 49H159.2V51H167.264V49ZM160.159 50.2822L172.303 9.00223L170.385 8.43777L158.241 49.7178L160.159 50.2822ZM171.344 9.72H179.408V7.72H171.344V9.72ZM178.449 8.43777L166.305 49.7178L168.223 50.2822L180.367 9.00223L178.449 8.43777ZM184.114 9.52272C184.306 8.84802 184.364 8.02205 183.837 7.3633C183.324 6.72218 182.514 6.568 181.808 6.568V8.568C182.042 8.568 182.183 8.59583 182.257 8.62077C182.324 8.64337 182.307 8.65293 182.275 8.61269C182.241 8.56976 182.247 8.54359 182.251 8.58897C182.255 8.64518 182.249 8.7667 182.19 8.97328L184.114 9.52272ZM181.808 6.568H167.84V8.568H181.808V6.568ZM168.684 8.10374L173.1 1.14374L171.412 0.0722532L166.996 7.03225L168.684 8.10374ZM172.256 1.608H187.856V-0.392002H172.256V1.608ZM187.856 1.608C189.488 1.608 190.385 2.08611 190.868 2.80031L192.524 1.67969C191.535 0.217885 189.872 -0.392002 187.856 -0.392002V1.608ZM190.868 2.80031C191.39 3.57202 191.543 4.60114 191.121 6.03783L193.039 6.60216C193.577 4.77486 193.474 3.08398 192.524 1.67969L190.868 2.80031ZM191.121 6.03749L178.257 49.7175L180.175 50.2825L193.039 6.60251L191.121 6.03749ZM179.216 49H171.152V51H179.216V49ZM172.111 50.2825L184.111 9.53047L182.193 8.96553L170.193 49.7175L172.111 50.2825Z" fill="white" mask="url(#path-1-outside-1_3_7)"/>
</svg>
