<svg width="57" height="50" viewBox="0 0 57 50" fill="none" xmlns="http://www.w3.org/2000/svg">
<mask id="path-1-outside-1_286_624" maskUnits="userSpaceOnUse" x="-2" y="-1" width="60" height="52" fill="black">
<rect fill="white" x="-2" y="-1" width="60" height="52"/>
<path d="M17.624 32.144L18.872 27.872H14.84L8.264 50H0.2L14.744 0.607998H22.808L16.664 21.536H20.744L22.04 17.168L27.176 25.184L17.624 32.144ZM27.416 26.384L20.456 50H12.296L17.048 34.016L27.416 26.384ZM22.424 15.728L26.888 0.607998H35L28.04 24.32L22.424 15.728Z"/>
<path d="M38.3596 8.72H46.4236L42.7276 21.344H50.0236L47.9116 28.448H40.6156L34.2796 50H26.2156L38.3596 8.72ZM54.4396 7.568H34.8556L39.2716 0.607998H56.4556L54.4396 7.568Z"/>
</mask>
<path d="M17.624 32.144L18.872 27.872H14.84L8.264 50H0.2L14.744 0.607998H22.808L16.664 21.536H20.744L22.04 17.168L27.176 25.184L17.624 32.144ZM27.416 26.384L20.456 50H12.296L17.048 34.016L27.416 26.384ZM22.424 15.728L26.888 0.607998H35L28.04 24.32L22.424 15.728Z" fill="#87161A"/>
<path d="M38.3596 8.72H46.4236L42.7276 21.344H50.0236L47.9116 28.448H40.6156L34.2796 50H26.2156L38.3596 8.72ZM54.4396 7.568H34.8556L39.2716 0.607998H56.4556L54.4396 7.568Z" fill="#1810AC"/>
<path d="M17.624 32.144L16.6641 31.8636L15.8413 34.6803L18.2129 32.9522L17.624 32.144ZM18.872 27.872L19.8319 28.1524L20.2059 26.872H18.872V27.872ZM14.84 27.872V26.872H14.094L13.8814 27.5871L14.84 27.872ZM8.264 50V51H9.01004L9.22257 50.2849L8.264 50ZM0.2 50L-0.759276 49.7175L-1.13691 51H0.2V50ZM14.744 0.607998V-0.392002H13.996L13.7847 0.325529L14.744 0.607998ZM22.808 0.607998L23.7675 0.889688L24.1438 -0.392002H22.808V0.607998ZM16.664 21.536L15.7045 21.2543L15.3282 22.536H16.664V21.536ZM20.744 21.536V22.536H21.4904L21.7027 21.8204L20.744 21.536ZM22.04 17.168L22.882 16.6285L21.703 14.7883L21.0813 16.8836L22.04 17.168ZM27.176 25.184L27.7649 25.9922L28.5261 25.4376L28.018 24.6445L27.176 25.184ZM27.416 26.384L28.3752 26.6667L29.2147 23.8182L26.8232 25.5787L27.416 26.384ZM20.456 50V51H21.2038L21.4152 50.2827L20.456 50ZM12.296 50L11.3375 49.715L10.9554 51H12.296V50ZM17.048 34.016L16.4552 33.2107L16.1851 33.4095L16.0895 33.731L17.048 34.016ZM22.424 15.728L21.4649 15.4448L21.334 15.8882L21.5869 16.2751L22.424 15.728ZM26.888 0.607998V-0.392002H26.1406L25.9289 0.324843L26.888 0.607998ZM35 0.607998L35.9595 0.889638L36.3357 -0.392002H35V0.607998ZM28.04 24.32L27.2029 24.8671L28.389 26.6817L28.9995 24.6016L28.04 24.32ZM18.5839 32.4244L19.8319 28.1524L17.9121 27.5916L16.6641 31.8636L18.5839 32.4244ZM18.872 26.872H14.84V28.872H18.872V26.872ZM13.8814 27.5871L7.30543 49.7151L9.22257 50.2849L15.7986 28.1569L13.8814 27.5871ZM8.264 49H0.2V51H8.264V49ZM1.15928 50.2825L15.7033 0.890467L13.7847 0.325529L-0.759276 49.7175L1.15928 50.2825ZM14.744 1.608H22.808V-0.392002H14.744V1.608ZM21.8485 0.326308L15.7045 21.2543L17.6235 21.8177L23.7675 0.889688L21.8485 0.326308ZM16.664 22.536H20.744V20.536H16.664V22.536ZM21.7027 21.8204L22.9987 17.4524L21.0813 16.8836L19.7853 21.2516L21.7027 21.8204ZM21.198 17.7075L26.334 25.7235L28.018 24.6445L22.882 16.6285L21.198 17.7075ZM26.5871 24.3758L17.0351 31.3358L18.2129 32.9522L27.7649 25.9922L26.5871 24.3758ZM26.4568 26.1013L19.4968 49.7173L21.4152 50.2827L28.3752 26.6667L26.4568 26.1013ZM20.456 49H12.296V51H20.456V49ZM13.2545 50.285L18.0065 34.301L16.0895 33.731L11.3375 49.715L13.2545 50.285ZM17.6408 34.8213L28.0088 27.1893L26.8232 25.5787L16.4552 33.2107L17.6408 34.8213ZM23.3831 16.0112L27.8471 0.891153L25.9289 0.324843L21.4649 15.4448L23.3831 16.0112ZM26.888 1.608H35V-0.392002H26.888V1.608ZM34.0405 0.326357L27.0805 24.0384L28.9995 24.6016L35.9595 0.889638L34.0405 0.326357ZM28.8771 23.7729L23.2611 15.1809L21.5869 16.2751L27.2029 24.8671L28.8771 23.7729ZM38.3596 8.72V7.72H37.6114L37.4003 8.43777L38.3596 8.72ZM46.4236 8.72L47.3833 9.00098L47.7584 7.72H46.4236V8.72ZM42.7276 21.344L41.7679 21.063L41.3929 22.344H42.7276V21.344ZM50.0236 21.344L50.9822 21.629L51.3642 20.344H50.0236V21.344ZM47.9116 28.448V29.448H48.6576L48.8702 28.733L47.9116 28.448ZM40.6156 28.448V27.448H39.8673L39.6562 28.1659L40.6156 28.448ZM34.2796 50V51H35.028L35.239 50.2821L34.2796 50ZM26.2156 50L25.2563 49.7178L24.8791 51H26.2156V50ZM54.4396 7.568V8.568H55.1911L55.4001 7.84622L54.4396 7.568ZM34.8556 7.568L34.0112 7.03225L33.0368 8.568H34.8556V7.568ZM39.2716 0.607998V-0.392002H38.7218L38.4272 0.0722532L39.2716 0.607998ZM56.4556 0.607998L57.4161 0.886217L57.7864 -0.392002H56.4556V0.607998ZM38.3596 9.72H46.4236V7.72H38.3596V9.72ZM45.4639 8.43902L41.7679 21.063L43.6873 21.625L47.3833 9.00098L45.4639 8.43902ZM42.7276 22.344H50.0236V20.344H42.7276V22.344ZM49.0651 21.059L46.9531 28.163L48.8702 28.733L50.9822 21.629L49.0651 21.059ZM47.9116 27.448H40.6156V29.448H47.9116V27.448ZM39.6562 28.1659L33.3202 49.7179L35.239 50.2821L41.575 28.73L39.6562 28.1659ZM34.2796 49H26.2156V51H34.2796V49ZM27.175 50.2822L39.319 9.00223L37.4003 8.43777L25.2563 49.7178L27.175 50.2822ZM54.4396 6.568H34.8556V8.568H54.4396V6.568ZM35.7 8.10374L40.116 1.14374L38.4272 0.0722532L34.0112 7.03225L35.7 8.10374ZM39.2716 1.608H56.4556V-0.392002H39.2716V1.608ZM55.4951 0.329779L53.4791 7.28978L55.4001 7.84622L57.4161 0.886217L55.4951 0.329779Z" fill="white" mask="url(#path-1-outside-1_286_624)"/>
</svg>
