<svg width="48" height="48" viewBox="0 0 48 48" fill="none" xmlns="http://www.w3.org/2000/svg">
<g clip-path="url(#clip0_94_835)">
<path d="M40.1597 17.5821C39.4564 16.7715 38.587 16.1215 37.6106 15.6761C36.6342 15.2307 35.5735 15.0003 34.5002 15.0006H28.5167L29.0207 11.9391C29.1991 10.861 28.9839 9.75467 28.4145 8.82198C27.8452 7.88928 26.9595 7.19234 25.919 6.85825C24.8786 6.52417 23.7527 6.57522 22.7468 7.00208C21.7409 7.42894 20.9219 8.20317 20.4392 9.18357L18.0002 14.1261V37.5006H33.4502C35.2554 37.4932 36.998 36.838 38.3609 35.6543C39.7239 34.4706 40.6166 32.8369 40.8767 31.0506L41.9342 23.5506C42.0838 22.4867 42.0027 21.403 41.6965 20.3732C41.3903 19.3434 40.8662 18.3915 40.1597 17.5821Z" fill="#FFCC00"/>
<path d="M6 22.5V30C6.00238 31.9884 6.79332 33.8947 8.19933 35.3007C9.60534 36.7067 11.5116 37.4976 13.5 37.5H15V15H13.5C11.5116 15.0024 9.60534 15.7933 8.19933 17.1993C6.79332 18.6053 6.00238 20.5116 6 22.5H6Z" fill="#FFCC00"/>
</g>
<defs>
<clipPath id="clip0_94_835">
<rect width="36" height="36" fill="white" transform="translate(6 6)"/>
</clipPath>
</defs>
</svg>
