<svg width="210" height="48" viewBox="0 0 210 48" fill="none" xmlns="http://www.w3.org/2000/svg">
<rect width="210" height="48" rx="24" fill="#1810AC"/>
<g clip-path="url(#clip0_8_353)">
<path d="M15.4 15.3999C18.9346 11.8653 24.6654 11.8653 28.2 15.3999C31.4252 18.6251 31.7075 23.6786 29.0471 27.224C29.0699 27.2428 29.0924 27.2638 29.1143 27.2856L34.6 32.7714C35.1049 33.2763 35.1049 34.095 34.6 34.5999C34.0951 35.1049 33.2764 35.1049 32.7714 34.5999L27.2857 29.1142L27.2251 29.0463C23.6797 31.7075 18.6255 31.4254 15.4 28.1999C11.8654 24.6653 11.8654 18.9345 15.4 15.3999ZM17.2286 17.2285C14.7038 19.7532 14.7038 23.8466 17.2286 26.3714C19.7533 28.8961 23.8467 28.8961 26.3714 26.3714C28.8962 23.8466 28.8962 19.7532 26.3714 17.2285C23.8467 14.7038 19.7533 14.7038 17.2286 17.2285Z" fill="white"/>
</g>
<path d="M58.6 26.68C58.6 27.08 58.6667 27.44 58.8 27.76C58.9333 28.08 59.1133 28.3533 59.34 28.58C59.5667 28.8067 59.8267 28.9867 60.12 29.12C60.4267 29.24 60.74 29.3067 61.06 29.32C61.1533 29.32 61.2467 29.3133 61.34 29.3C61.4333 29.2867 61.5467 29.26 61.68 29.22C61.8267 29.1667 62.0067 29.1 62.22 29.02C62.4333 28.94 62.7067 28.8333 63.04 28.7L63.68 28.42L64.22 29.8L62.48 30.42C62.2533 30.5 62.0067 30.5667 61.74 30.62C61.4733 30.6733 61.2467 30.7 61.06 30.7C60.5533 30.7 60.0667 30.6133 59.6 30.44C59.1467 30.2533 58.7467 29.9933 58.4 29.66C58.0533 29.3133 57.78 28.9 57.58 28.42C57.38 27.9267 57.28 27.38 57.28 26.78V20.44C57.28 19.8933 57.38 19.3733 57.58 18.88C57.78 18.3733 58 17.9867 58.24 17.72C58.4533 17.4667 58.64 17.2733 58.8 17.14C58.9733 17.0067 59.1467 16.8867 59.32 16.78L59.42 16.74L59.36 16.76C59.5067 16.68 59.7133 16.5867 59.98 16.48C60.26 16.36 60.6333 16.3 61.1 16.3C61.3 16.3 61.5333 16.3333 61.8 16.4C62.0667 16.4667 62.3 16.5333 62.5 16.6L64.18 17.24L63.72 18.54L61.88 17.84C61.7467 17.7867 61.6133 17.74 61.48 17.7C61.3467 17.66 61.2267 17.64 61.12 17.64C60.7867 17.64 60.4667 17.72 60.16 17.88C59.8667 18.04 59.6067 18.2533 59.38 18.52C59.1533 18.7733 58.9733 19.0667 58.84 19.4C58.7067 19.7333 58.64 20.08 58.64 20.44L58.6 26.68ZM70.7528 23.34C70.7528 22.94 70.6795 22.6267 70.5328 22.4C70.3995 22.16 70.2261 21.98 70.0128 21.86C69.8128 21.7267 69.5995 21.64 69.3728 21.6C69.1595 21.56 68.9728 21.54 68.8128 21.54C68.6528 21.54 68.4595 21.56 68.2328 21.6C68.0061 21.64 67.7861 21.7267 67.5728 21.86C67.3728 21.98 67.1995 22.16 67.0528 22.4C66.9061 22.6267 66.8328 22.94 66.8328 23.34V27.56C66.8328 27.96 66.9061 28.28 67.0528 28.52C67.1995 28.76 67.3728 28.9467 67.5728 29.08C67.7861 29.2 68.0061 29.2867 68.2328 29.34C68.4595 29.38 68.6528 29.4 68.8128 29.4C68.9728 29.4 69.1595 29.38 69.3728 29.34C69.5995 29.2867 69.8128 29.2 70.0128 29.08C70.2261 28.9467 70.3995 28.76 70.5328 28.52C70.6795 28.28 70.7528 27.96 70.7528 27.56V23.34ZM71.9128 27.7C71.9128 28.3267 71.7995 28.8333 71.5728 29.22C71.3461 29.5933 71.0661 29.8867 70.7328 30.1C70.4128 30.3133 70.0728 30.4533 69.7128 30.52C69.3661 30.5867 69.0661 30.62 68.8128 30.62C68.5595 30.62 68.2528 30.5867 67.8928 30.52C67.5328 30.4533 67.1861 30.3133 66.8528 30.1C66.5328 29.8867 66.2595 29.5933 66.0328 29.22C65.8061 28.8333 65.6928 28.3267 65.6928 27.7V23.2C65.6928 22.5733 65.8061 22.0733 66.0328 21.7C66.2595 21.3133 66.5328 21.02 66.8528 20.82C67.1861 20.6067 67.5328 20.4667 67.8928 20.4C68.2528 20.3333 68.5595 20.3 68.8128 20.3C69.0661 20.3 69.3661 20.3333 69.7128 20.4C70.0728 20.4667 70.4128 20.6067 70.7328 20.82C71.0661 21.02 71.3461 21.3133 71.5728 21.7C71.7995 22.0733 71.9128 22.5733 71.9128 23.2V27.7ZM80.1327 22C80.2927 22.3467 80.386 22.6867 80.4127 23.02C80.4393 23.3533 80.4527 23.7 80.4527 24.06V30.5H79.1527V23.46C79.1527 22.8467 78.986 22.38 78.6527 22.06C78.3327 21.7267 77.9727 21.56 77.5727 21.56C77.346 21.56 77.0527 21.5933 76.6927 21.66C76.346 21.7133 75.9393 21.8933 75.4727 22.2V30.5H74.2127V21.64L73.7327 21.18L74.6127 20.28L75.2327 20.88C75.926 20.5067 76.5927 20.32 77.2327 20.32C77.8327 20.32 78.3993 20.4467 78.9327 20.7C79.466 20.9533 79.866 21.3867 80.1327 22ZM83.6059 21.72H81.9459V20.48H83.6059V16.6H84.9059V20.48H86.6859V21.72H84.9059V27.94C84.9059 28.42 85.0259 28.7533 85.2659 28.94C85.5059 29.1133 85.7926 29.2 86.1259 29.2H86.6859V30.52H86.0259C85.3459 30.52 84.7726 30.3133 84.3059 29.9C83.8393 29.4733 83.6059 28.7867 83.6059 27.84V21.72ZM91.6533 25.54C92.0666 25.54 92.4133 25.38 92.6933 25.06C92.9866 24.7267 93.1333 24.3467 93.1333 23.92V23.1C93.1333 22.82 93.0799 22.5867 92.9733 22.4C92.8666 22.2 92.7199 22.04 92.5333 21.92C92.3599 21.8 92.1533 21.7133 91.9133 21.66C91.6733 21.6067 91.4266 21.58 91.1733 21.58C90.7199 21.58 90.3199 21.72 89.9733 22C89.6266 22.2667 89.4533 22.6333 89.4533 23.1V25.52L91.6533 25.54ZM88.1533 23.2C88.1533 22.8 88.2266 22.4267 88.3733 22.08C88.5199 21.72 88.7199 21.4133 88.9733 21.16C89.2266 20.8933 89.5199 20.6867 89.8533 20.54C90.1999 20.38 90.5666 20.3 90.9533 20.3H91.6133C91.9999 20.3 92.3599 20.3733 92.6933 20.52C93.0399 20.6667 93.3399 20.8733 93.5933 21.14C93.8466 21.3933 94.0466 21.7 94.1933 22.06C94.3399 22.4067 94.4133 22.7867 94.4133 23.2V23.84C94.4133 24.4133 94.3133 24.8933 94.1133 25.28C93.9133 25.6667 93.6333 25.98 93.2733 26.22C92.9266 26.46 92.5199 26.6333 92.0533 26.74C91.5866 26.8467 91.0933 26.9 90.5733 26.9C90.1999 26.9 89.8266 26.88 89.4533 26.84V27.84C89.5466 28.3067 89.7733 28.6867 90.1333 28.98C90.5066 29.2733 90.9266 29.42 91.3933 29.42C91.4199 29.42 91.5733 29.3933 91.8533 29.34C92.1466 29.2733 92.4599 29.2 92.7933 29.12C93.1799 29.04 93.6066 28.94 94.0733 28.82L94.3933 30.14C93.8866 30.2467 93.4199 30.34 92.9933 30.42C92.6333 30.4867 92.2933 30.5467 91.9733 30.6C91.6533 30.6533 91.4599 30.68 91.3933 30.68C90.9533 30.68 90.5333 30.6 90.1333 30.44C89.7466 30.28 89.4066 30.06 89.1133 29.78C88.8199 29.5 88.5866 29.1667 88.4133 28.78C88.2399 28.3933 88.1533 27.9667 88.1533 27.5V23.2ZM102.437 22C102.597 22.3467 102.691 22.6867 102.717 23.02C102.744 23.3533 102.757 23.7 102.757 24.06V30.5H101.457V23.46C101.457 22.8467 101.291 22.38 100.957 22.06C100.637 21.7267 100.277 21.56 99.8773 21.56C99.6507 21.56 99.3573 21.5933 98.9973 21.66C98.6507 21.7133 98.244 21.8933 97.7773 22.2V30.5H96.5173V21.64L96.0373 21.18L96.9173 20.28L97.5373 20.88C98.2307 20.5067 98.8973 20.32 99.5373 20.32C100.137 20.32 100.704 20.4467 101.237 20.7C101.771 20.9533 102.171 21.3867 102.437 22ZM105.911 21.72H104.251V20.48H105.911V16.6H107.211V20.48H108.991V21.72H107.211V27.94C107.211 28.42 107.331 28.7533 107.571 28.94C107.811 29.1133 108.097 29.2 108.431 29.2H108.991V30.52H108.331C107.651 30.52 107.077 30.3133 106.611 29.9C106.144 29.4733 105.911 28.7867 105.911 27.84V21.72Z" fill="white"/>
<line x1="118.25" y1="16.5" x2="118.25" y2="31.5" stroke="white" stroke-width="0.5"/>
<path d="M190.728 20.2423C191.119 20.6328 191.119 21.266 190.728 21.6565L187.899 24.4846L190.727 27.3133C191.118 27.7038 191.118 28.337 190.727 28.7275C190.337 29.118 189.704 29.118 189.313 28.7275L186.485 25.8988L183.657 28.728C183.266 29.1186 182.633 29.1186 182.242 28.728C181.852 28.3375 181.852 27.7044 182.242 27.3138L185.071 24.4846L182.243 21.6571C181.852 21.2666 181.852 20.6334 182.243 20.2429C182.633 19.8523 183.267 19.8523 183.657 20.2429L186.485 23.0704L189.314 20.2423C189.704 19.8518 190.338 19.8518 190.728 20.2423Z" fill="white"/>
<defs>
<clipPath id="clip0_8_353">
<rect width="32" height="32" fill="white" transform="translate(9 9)"/>
</clipPath>
</defs>
</svg>
