<svg width="23" height="23" viewBox="0 0 23 23" fill="none" xmlns="http://www.w3.org/2000/svg">
<path d="M3.4 3.40005C6.93462 -0.134574 12.6654 -0.134574 16.2 3.40005C19.4252 6.6252 19.7075 11.6788 17.0471 15.2241C17.0699 15.2429 17.0924 15.2639 17.1143 15.2858L22.6 20.7715C23.1049 21.2764 23.1049 22.0951 22.6 22.6C22.0951 23.105 21.2764 23.105 20.7714 22.6L15.2857 17.1143L15.2251 17.0464C11.6797 19.7076 6.62547 19.4255 3.4 16.2C-0.134623 12.6654 -0.134622 6.93467 3.4 3.40005ZM5.22857 5.22862C2.70384 7.75335 2.70384 11.8467 5.22857 14.3715C7.7533 16.8962 11.8467 16.8962 14.3714 14.3715C16.8962 11.8467 16.8962 7.75335 14.3714 5.22862C11.8467 2.70389 7.7533 2.70389 5.22857 5.22862Z" fill="white"/>
</svg>
