<svg width="23" height="28" viewBox="0 0 23 28" fill="none" xmlns="http://www.w3.org/2000/svg">
<path d="M15.8048 27.1014C15.4509 27.0806 15.103 26.935 14.8326 26.6647L9.52934 21.3614C8.94355 20.7756 8.94355 19.8258 9.52934 19.2401C10.1151 18.6543 11.0649 18.6543 11.6507 19.2401L14.3775 21.9664L14.3787 9.8761C14.3787 9.04767 15.0503 8.3761 15.8787 8.3761C16.7071 8.3761 17.3787 9.04767 17.3787 9.8761L17.3775 22.0024L20.1426 19.2401C20.6834 18.6993 21.5342 18.6577 22.1227 19.1153L22.264 19.2401C22.8497 19.8258 22.8497 20.7756 22.264 21.3614L16.9607 26.6647C16.6903 26.935 16.3424 27.0806 15.9885 27.1014H15.8048ZM6.89185 1.52588e-05C7.24571 0.0208124 7.5936 0.166392 7.86396 0.436755L13.1673 5.74006C13.753 6.32584 13.753 7.27559 13.1673 7.86138C12.5815 8.44716 11.6317 8.44716 11.0459 7.86138L8.3775 5.19342L8.37868 17.3761C8.37868 18.2045 7.70711 18.8761 6.87868 18.8761C6.05025 18.8761 5.37868 18.2045 5.37868 17.3761L5.3775 5.04342L2.56066 7.86138C2.01993 8.4021 1.16909 8.4437 0.580651 7.98616L0.43934 7.86138C-0.146447 7.27559 -0.146447 6.32584 0.43934 5.74006L5.74264 0.436755C6.013 0.166392 6.3609 0.0208124 6.71475 1.52588e-05H6.89185Z" fill="white"/>
</svg>
