<svg width="40" height="38" viewBox="0 0 40 38" fill="none" xmlns="http://www.w3.org/2000/svg">
<path d="M21.3291 0.344788C22.6285 0.852945 23.6564 1.88087 24.1645 3.18021L26.8763 10.1141L34.3089 10.5505C37.0656 10.7123 39.1691 13.0783 39.0072 15.8349C38.9255 17.2277 38.2655 18.523 37.1868 19.4078L31.4302 24.1296L33.312 31.3332C34.0099 34.0049 32.4098 36.7366 29.7381 37.4346C28.3882 37.7872 26.9524 37.5598 25.7775 36.8073L19.508 32.7916L13.2384 36.8073C10.9131 38.2967 7.82067 37.619 6.33127 35.2937C5.57877 34.1189 5.35136 32.683 5.70399 31.3332L7.58577 24.1296L1.8292 19.4078C-0.305874 17.6565 -0.617006 14.506 1.13426 12.371C2.01907 11.2922 3.31433 10.6323 4.7071 10.5505L12.1397 10.1141L14.8514 3.18021C15.8572 0.608468 18.7574 -0.660994 21.3291 0.344788ZM18.5767 4.63712L15.165 13.3606C15.0228 13.7242 14.682 13.9718 14.2923 13.9946L4.94154 14.5436C4.66298 14.56 4.40393 14.692 4.22697 14.9077C3.87672 15.3347 3.93894 15.9648 4.36596 16.3151L11.6082 22.2555C11.9101 22.5031 12.0402 22.9037 11.9416 23.2814L9.57412 32.3442C9.50359 32.6141 9.54908 32.9013 9.69958 33.1363C9.99746 33.6013 10.6159 33.7369 11.081 33.439L18.9686 28.3869C19.2974 28.1763 19.7186 28.1763 20.0474 28.3869L27.935 33.439C28.1699 33.5895 28.4571 33.635 28.7271 33.5644C29.2614 33.4248 29.5815 32.8785 29.4419 32.3442L27.0744 23.2814C26.9758 22.9037 27.1059 22.5031 27.4078 22.2555L34.65 16.3151C34.8658 16.1381 34.9978 15.8791 35.0141 15.6005C35.0465 15.0492 34.6258 14.576 34.0744 14.5436L24.7237 13.9946C24.3339 13.9718 23.9932 13.7242 23.851 13.3606L20.4393 4.63712C20.3377 4.37725 20.1321 4.17166 19.8722 4.07003C19.3579 3.86887 18.7778 4.12277 18.5767 4.63712Z" fill="#52555A"/>
</svg>
